# xmcd
#
# Track frame offsets:
#	150
#	12702
#	43047
#	55870
#	67945
#	81390
#	95287
#	108662
#	121482
#	135167
#	145435
#	157002
#	180750
#	193635
#	205225
#	216147
#	228427
#	239697
#
# Disc length: 3422
#
# Revision: 4
# Processed by: cddbd v1.5.1PL0 Copyright (c) Steve Scherf et al.
# Submitted via: CDex 1.51
# Normalized: r3:DSETVAR1
#
DISCID=020d5c12
DTITLE=Various Artist - Blues ballads
DYEAR=1996
DGENRE=Blues
TTITLE0=Muddy Waters - Mean mistreater
TTITLE1=Brownie McGhee and Sonny Terry - Everybody's blues
TTITLE2=Sonny Boy Williamson - All my love in vain
TTITLE3=Lightnin' Hopkins - Evil hearted woman
TTITLE4=Howlin' Wolf - My last affair
TTITLE5=Elmore James - It hurts me too
TTITLE6=Sonny Boy Williamson - Sad to be alone
TTITLE7=Johnny Winter - Leavin' blues
TTITLE8=Muddy Waters - Sad letter
TTITLE9=Little Walter - Hate to see you go
TTITLE10=Sonny Boy Williamson - Stop crying (All your throwing away is mine)
TTITLE11=B.B. King - You've done lost you're good thing now
TTITLE12=Muddy Waters - 40 days and 40 nights
TTITLE13=Lightning Slim - Lightning's bad luck
TTITLE14=Little Walter - Blue midnight
TTITLE15=Howlin' Wolf - Louise
TTITLE16=Big Joe Williams - Bye, bye baby blues
TTITLE17=Mississippi John Hurt - Lonesome blues
EXTD=YEAR: 1996
EXTT0=
EXTT1=
EXTT2=
EXTT3=
EXTT4=
EXTT5=
EXTT6=
EXTT7=
EXTT8=
EXTT9=
EXTT10=
EXTT11=
EXTT12=
EXTT13=
EXTT14=
EXTT15=
EXTT16=
EXTT17=
PLAYORDER=
